<?xml version="1.0" encoding="UTF-8"?>
<svg version="1.1" xmlns="http://www.w3.org/2000/svg" width="258" height="141">
<path d="M0 0 C85.14 0 170.28 0 258 0 C258 24.09 258 48.18 258 73 C172.86 73 87.72 73 0 73 C0 48.91 0 24.82 0 0 Z " fill="#FBF9F9" transform="translate(0,68)"/>
<path d="M0 0 C2.28535857 2.13020807 3.89551472 4.2537929 5.48046875 6.94140625 C5.92197266 7.68970703 6.36347656 8.43800781 6.81835938 9.20898438 C7.27017578 9.98564453 7.72199219 10.76230469 8.1875 11.5625 C8.65091797 12.34302734 9.11433594 13.12355469 9.59179688 13.92773438 C13 19.74527108 13 19.74527108 13 22 C12.17757812 22.21914062 11.35515625 22.43828125 10.5078125 22.6640625 C-3.64638607 26.68477018 -14.87458662 33.55796077 -23 46 C-24 43 -24 43 -22.8125 40.57421875 C-22.214375 39.62160156 -21.61625 38.66898438 -21 37.6875 C-18.2488612 33.16425589 -15.76459065 28.63850771 -13.4375 23.875 C-10.94273219 18.79576486 -8.25810921 13.94112611 -5.28515625 9.12890625 C-3.69551896 6.49561651 -2.34648831 3.76384442 -1 1 C-0.67 0.67 -0.34 0.34 0 0 Z " fill="#EE571C" transform="translate(30,85)"/>
<path d="M0 0 C12.55555556 0 12.55555556 0 16 3 C19.10815637 7.66223455 18.61156181 12.54015304 18 18 C15.90784488 21.67930728 14.98851981 22.6704934 11 24 C7.37 24 3.74 24 0 24 C0 16.08 0 8.16 0 0 Z " fill="#F05416" transform="translate(204,86)"/>
<path d="M0 0 C2.0625 -0.061875 4.125 -0.12375 6.25 -0.1875 C7.99023438 -0.23970703 7.99023438 -0.23970703 9.765625 -0.29296875 C13.25414263 0.02302017 14.62112734 0.46446987 17 3 C17.46913089 7.37855495 17.46943529 9.29584707 15 13 C15.99 13.66 16.98 14.32 18 15 C18.29296875 17.1640625 18.29296875 17.1640625 18.1875 19.625 C18.16042969 20.44226563 18.13335937 21.25953125 18.10546875 22.1015625 C18.07066406 22.72804688 18.03585938 23.35453125 18 24 C16.35 24 14.7 24 13 24 C12.77213542 21.94921875 12.54427083 19.8984375 12.31640625 17.84765625 C12.18113386 15.98859771 12.18113386 15.98859771 11 15 C8.67182036 14.63239269 6.3381615 14.29758419 4 14 C4 17.3 4 20.6 4 24 C2.68 24 1.36 24 0 24 C0 16.08 0 8.16 0 0 Z " fill="#F04F0D" transform="translate(170,86)"/>
<path d="M0 0 C7 8.48023715 7 8.48023715 7 13 C-4.55 13 -16.1 13 -28 13 C-24.6872587 6.3745174 -19.74268798 4.07870388 -13 1.6875 C-3.66727918 -1.07861152 -3.66727918 -1.07861152 0 0 Z " fill="#F15F28" transform="translate(50,118)"/>
<path d="M0 0 C2.625 1.8125 2.625 1.8125 4 4 C4 4.99 4 5.98 4 7 C1.625 7.1875 1.625 7.1875 -1 7 C-1.66 6.01 -2.32 5.02 -3 4 C-6.08365871 3.7497843 -6.08365871 3.7497843 -9 4 C-8.8763488 5.93070616 -8.8763488 5.93070616 -8 8 C-5.76672609 9.50333505 -5.76672609 9.50333505 -3.0625 10.625 C1.83989501 12.83989501 1.83989501 12.83989501 4 15 C4.4375 17.875 4.4375 17.875 4 21 C1.26798367 24.14595819 -0.35762437 24.91970305 -4.5 25.4375 C-8.22681047 24.97164869 -10.14839188 24.43225399 -13 22 C-13.8125 19.3125 -13.8125 19.3125 -14 17 C-12.68 17 -11.36 17 -10 17 C-9.34 17.99 -8.68 18.98 -8 20 C-4.91634129 20.2502157 -4.91634129 20.2502157 -2 20 C-2.33 18.35 -2.66 16.7 -3 15 C-4.60875 14.62875 -4.60875 14.62875 -6.25 14.25 C-10.06960284 12.97679905 -11.82016457 12.36057963 -14 9 C-13.9375 5.375 -13.9375 5.375 -13 2 C-8.77355266 -0.81763156 -4.96469944 -0.67441907 0 0 Z " fill="#F15A1D" transform="translate(141,86)"/>
<path d="M0 0 C1.32 0 2.64 0 4 0 C4 3.3 4 6.6 4 10 C4.99 10 5.98 10 7 10 C7.2475 9.278125 7.495 8.55625 7.75 7.8125 C9.15343389 4.65477374 10.5530258 2.4469742 13 0 C15.75 -0.3125 15.75 -0.3125 18 0 C16.07119658 3.40755272 14.1723491 6.74147635 12 10 C12.35147149 13.55958358 14.20979985 16.25414444 16.0625 19.25 C16.61035156 20.14203125 17.15820312 21.0340625 17.72265625 21.953125 C18.35494141 22.96632813 18.35494141 22.96632813 19 24 C16.3125 24.5 16.3125 24.5 13 24 C10.52424998 21.19798835 8 17.83491389 8 14 C6.68 14 5.36 14 4 14 C4 17.3 4 20.6 4 24 C2.68 24 1.36 24 0 24 C0 16.08 0 8.16 0 0 Z " fill="#F04E0F" transform="translate(63,86)"/>
<path d="M0 0 C5.28 0 10.56 0 16 0 C16 0.99 16 1.98 16 3 C12.37 3 8.74 3 5 3 C5 5.31 5 7.62 5 10 C8.3 10 11.6 10 15 10 C15 11.32 15 12.64 15 14 C11.7 14 8.4 14 5 14 C5 16.31 5 18.62 5 21 C8.63 21 12.26 21 16 21 C16 21.99 16 22.98 16 24 C10.72 24 5.44 24 0 24 C0 16.08 0 8.16 0 0 Z " fill="#F15A1D" transform="translate(85,86)"/>
<path d="M0 0 C5.61 0 11.22 0 17 0 C17 0.99 17 1.98 17 3 C13.04 3 9.08 3 5 3 C5 5.31 5 7.62 5 10 C8.3 10 11.6 10 15 10 C15 10.99 15 11.98 15 13 C11.7 13 8.4 13 5 13 C5 15.64 5 18.28 5 21 C8.96 21 12.92 21 17 21 C17 21.99 17 22.98 17 24 C11.39 24 5.78 24 0 24 C0 16.08 0 8.16 0 0 Z " fill="#F15515" transform="translate(226,86)"/>
<path d="M0 0 C0.99 0.99 1.98 1.98 3 3 C1.45140159 8.41576875 -1.05373496 13.00754709 -3.8125 17.875 C-4.23853516 18.63941406 -4.66457031 19.40382813 -5.10351562 20.19140625 C-12.86930702 34.03119787 -12.86930702 34.03119787 -17.0625 38.75 C-17.56136719 39.31332031 -18.06023438 39.87664062 -18.57421875 40.45703125 C-20.33174738 42.35901429 -22.13326315 44.20506073 -24 46 C-23.30323032 42.49704081 -21.91460341 39.65222806 -20.26953125 36.4921875 C-19.71330078 35.42226562 -19.15707031 34.35234375 -18.58398438 33.25 C-17.99939453 32.13625 -17.41480469 31.0225 -16.8125 29.875 C-16.24724609 28.78445312 -15.68199219 27.69390625 -15.09960938 26.5703125 C-11.994256 20.62283157 -8.76746203 14.79684728 -5.25 9.08276367 C-3.67759988 6.46281339 -2.33761762 3.74563617 -1 1 C-0.67 0.67 -0.34 0.34 0 0 Z " fill="#0C2654" transform="translate(30,85)"/>
<path d="M0 0 C1.65 0 3.3 0 5 0 C5.67154933 1.28913487 6.33708859 2.58140204 7 3.875 C7.37125 4.59429687 7.7425 5.31359375 8.125 6.0546875 C9 8 9 8 9 10 C9.66 10 10.32 10 11 10 C11.28875 9.0925 11.5775 8.185 11.875 7.25 C12.76531776 4.67797092 13.71494413 2.38653234 15 0 C16.65 0 18.3 0 20 0 C19.50628906 0.97839844 19.01257813 1.95679687 18.50390625 2.96484375 C15.03023048 10.01380682 12.14045244 15.99421083 12 24 C10.35 24 8.7 24 7 24 C6.99742188 23.33355469 6.99484375 22.66710937 6.9921875 21.98046875 C6.69649637 14.93316349 4.94152744 10.22410501 1.27734375 4.21484375 C0 2 0 2 0 0 Z " fill="#F1561B" transform="translate(104,86)"/>
<path d="M0 0 C5.94 0 11.88 0 18 0 C18 0.99 18 1.98 18 3 C15.69 3 13.38 3 11 3 C11 9.93 11 16.86 11 24 C9.35 24 7.7 24 6 24 C6 17.07 6 10.14 6 3 C4.02 3 2.04 3 0 3 C0 2.01 0 1.02 0 0 Z " fill="#F15C26" transform="translate(148,86)"/>
<path d="M0 0 C7 1 7 1 9 3 C9.66364834 7.8616099 9.96271742 12.46678337 7.3125 16.6875 C5 18 5 18 0 18 C0 12.06 0 6.12 0 0 Z " fill="#FDEEE8" transform="translate(208,89)"/>
<path d="M0 0 C1.65 0 3.3 0 5 0 C5 7.92 5 15.84 5 24 C3.35 24 1.7 24 0 24 C0 16.08 0 8.16 0 0 Z " fill="#F15E20" transform="translate(193,86)"/>
<path d="M0 0 C5.28 0 10.56 0 16 0 C16 0.99 16 1.98 16 3 C14.22925083 3.02705729 12.45838289 3.04642195 10.6875 3.0625 C9.70136719 3.07410156 8.71523437 3.08570312 7.69921875 3.09765625 C5 3 5 3 2 2 C2 8.93 2 15.86 2 23 C2.99 22.34 3.98 21.68 5 21 C7.69921875 20.8046875 7.69921875 20.8046875 10.6875 20.875 C12.17830078 20.90207031 12.17830078 20.90207031 13.69921875 20.9296875 C14.45847656 20.95289062 15.21773437 20.97609375 16 21 C16 21.99 16 22.98 16 24 C10.72 24 5.44 24 0 24 C0 16.08 0 8.16 0 0 Z " fill="#F04D04" transform="translate(85,86)"/>
<path d="M0 0 C2.72869407 0.03287583 5.2966618 0.56397771 8 1 C8 1.99 8 2.98 8 4 C9.65 4.33 11.3 4.66 13 5 C12.67 6.32 12.34 7.64 12 9 C10.04196493 9.05389087 8.08351091 9.09274217 6.125 9.125 C5.03445312 9.14820313 3.94390625 9.17140625 2.8203125 9.1953125 C0 9 0 9 -2 7 C-2.25 4.5 -2.25 4.5 -2 2 C-1.34 1.34 -0.68 0.68 0 0 Z " fill="#ACB2C5" transform="translate(152,122)"/>
<path d="M0 0 C2.0625 -0.061875 4.125 -0.12375 6.25 -0.1875 C7.99023438 -0.23970703 7.99023438 -0.23970703 9.765625 -0.29296875 C13.22882755 0.02072713 14.59230906 0.53867238 17 3 C17 3.66 17 4.32 17 5 C12.71 4.67 8.42 4.34 4 4 C4 6.31 4 8.62 4 11 C3.67 11 3.34 11 3 11 C3 8.36 3 5.72 3 3 C2.34 2.67 1.68 2.34 1 2 C1 8.93 1 15.86 1 23 C1.66 23 2.32 23 3 23 C3 20.03 3 17.06 3 14 C3.33 14 3.66 14 4 14 C4 17.3 4 20.6 4 24 C2.68 24 1.36 24 0 24 C0 16.08 0 8.16 0 0 Z " fill="#F04905" transform="translate(170,86)"/>
<path d="M0 0 C3.63 0 7.26 0 11 0 C11.66 1.65 12.32 3.3 13 5 C13.99 3.35 14.98 1.7 16 0 C17 3 17 3 16.22265625 5.04296875 C15.83980469 5.75066406 15.45695313 6.45835937 15.0625 7.1875 C14.68222656 7.90292969 14.30195313 8.61835938 13.91015625 9.35546875 C13.60980469 9.89816406 13.30945313 10.44085938 13 11 C12.01 11 11.02 11 10 11 C10.185625 10.2575 10.37125 9.515 10.5625 8.75 C10.99203108 6.05009037 10.85122974 4.55368923 10 2 C9.34 2 8.68 2 8 2 C8 4.31 8 6.62 8 9 C7.34 9 6.68 9 6 9 C5.67 6.69 5.34 4.38 5 2 C4.34 2 3.68 2 3 2 C2.67 4.31 2.34 6.62 2 9 C1.34 9 0.68 9 0 9 C0 6.03 0 3.06 0 0 Z " fill="#45557E" transform="translate(226,122)"/>
<path d="M0 0 C1.98 0 3.96 0 6 0 C8 2 8 2 8.25 4.5 C8 7 8 7 6 9 C5.01 9 4.02 9 3 9 C2.67 9.99 2.34 10.98 2 12 C1.34 12 0.68 12 0 12 C0 8.04 0 4.08 0 0 Z " fill="#344670" transform="translate(206,122)"/>
<path d="M0 0 C2.31 0 4.62 0 7 0 C7.02687279 1.81242052 7.04633715 3.62495233 7.0625 5.4375 C7.07410156 6.44683594 7.08570313 7.45617187 7.09765625 8.49609375 C7 11 7 11 6 12 C4.00041636 12.04080783 1.99954746 12.04254356 0 12 C0 11.67 0 11.34 0 11 C1.65 11 3.3 11 5 11 C5 10.01 5 9.02 5 8 C4.195625 8.020625 3.39125 8.04125 2.5625 8.0625 C0 8 0 8 -1 7 C-0.71269945 4.66055264 -0.38063221 2.3260857 0 0 Z " fill="#263868" transform="translate(137,122)"/>
<path d="M0 0 C1.97909398 -0.02686553 3.95828971 -0.04633375 5.9375 -0.0625 C7.03964844 -0.07410156 8.14179688 -0.08570312 9.27734375 -0.09765625 C12 0 12 0 13 1 C13.14115161 3.67058851 13.04247107 6.32432238 13 9 C12.34 9 11.68 9 11 9 C10.67 6.69 10.34 4.38 10 2 C9.67 2 9.34 2 9 2 C8.67 4.31 8.34 6.62 8 9 C7.34 9 6.68 9 6 9 C5.87625 7.865625 5.7525 6.73125 5.625 5.5625 C5.41875 4.386875 5.2125 3.21125 5 2 C4.34 1.67 3.68 1.34 3 1 C3 3.64 3 6.28 3 9 C2.01 9 1.02 9 0 9 C0 6.03 0 3.06 0 0 Z " fill="#46567D" transform="translate(191,122)"/>
<path d="M0 0 C0.94875 0.04125 1.8975 0.0825 2.875 0.125 C2.875 3.095 2.875 6.065 2.875 9.125 C0 9.25 0 9.25 -3.125 9.125 C-5.125 7.125 -5.125 7.125 -5.375 4.625 C-4.98192433 0.69424327 -3.8631953 0.15452781 0 0 Z " fill="#3E4D78" transform="translate(221.125,121.875)"/>
<path d="M0 0 C3 1 3 1 4.16796875 2.99609375 C4.50441406 3.80175781 4.84085938 4.60742188 5.1875 5.4375 C5.53167969 6.24058594 5.87585938 7.04367188 6.23046875 7.87109375 C7 10 7 10 7 12 C6.34 12 5.68 12 5 12 C4.67 11.34 4.34 10.68 4 10 C0.97065509 9.34227572 0.97065509 9.34227572 -2 9 C-2.33 9.99 -2.66 10.98 -3 12 C-3.66 12 -4.32 12 -5 12 C-4.54738642 10.56068883 -4.08767021 9.12361001 -3.625 7.6875 C-3.24214844 6.48673828 -3.24214844 6.48673828 -2.8515625 5.26171875 C-2 3 -2 3 0 0 Z " fill="#677293" transform="translate(73,119)"/>
<path d="M0 0 C4.55555556 0.55555556 4.55555556 0.55555556 6 2 C6.1875 4.4375 6.1875 4.4375 6 7 C5.34 7.66 4.68 8.32 4 9 C1.375 8.625 1.375 8.625 -1 8 C-1.625 5.125 -1.625 5.125 -2 2 C-1.34 1.34 -0.68 0.68 0 0 Z " fill="#384471" transform="translate(128,122)"/>
<path d="M0 0 C3 1 3 1 4 3 C4.3340683 5.30421469 4.59480377 7.61939403 4.8125 9.9375 C4.94269531 11.18402344 5.07289063 12.43054688 5.20703125 13.71484375 C5 17 5 17 3.01171875 18.94140625 C2.34785156 19.29074219 1.68398437 19.64007813 1 20 C-0.14982602 15.90996141 -0.11094256 11.96822949 -0.0625 7.75 C-0.05798828 7.00492187 -0.05347656 6.25984375 -0.04882812 5.4921875 C-0.03709246 3.6614236 -0.0191585 1.83070127 0 0 Z " fill="#F1581B" transform="translate(216,89)"/>
<path d="M0 0 C2.64 0 5.28 0 8 0 C8.625 2.375 8.625 2.375 9 5 C7 7 7 7 3.375 7.125 C2.26125 7.08375 1.1475 7.0425 0 7 C0 4.69 0 2.38 0 0 Z " fill="#FCE6DE" transform="translate(174,90)"/>
<path d="M0 0 C2.97 0.495 2.97 0.495 6 1 C6 3.31 6 5.62 6 8 C3.625 8.625 3.625 8.625 1 9 C0.34 8.34 -0.32 7.68 -1 7 C-0.625 3.375 -0.625 3.375 0 0 Z " fill="#3A4572" transform="translate(183,122)"/>
<path d="M0 0 C0.33 0 0.66 0 1 0 C1 7.59 1 15.18 1 23 C1.99 22.34 2.98 21.68 4 21 C6.26171875 20.3671875 6.26171875 20.3671875 8.6875 19.875 C9.49574219 19.70742187 10.30398437 19.53984375 11.13671875 19.3671875 C11.75160156 19.24601562 12.36648437 19.12484375 13 19 C13 20.32 13 21.64 13 23 C11 24 11 24 0 24 C0 16.08 0 8.16 0 0 Z " fill="#EF4100" transform="translate(204,86)"/>
<path d="M0 0 C5.94 0 11.88 0 18 0 C18 0.99 18 1.98 18 3 C12.06 3 6.12 3 0 3 C0 2.01 0 1.02 0 0 Z " fill="#F04E04" transform="translate(148,86)"/>
<path d="M0 0 C0.66 0 1.32 0 2 0 C2.16873478 1.43725871 2.33490737 2.87481838 2.5 4.3125 C2.5928125 5.11300781 2.685625 5.91351563 2.78125 6.73828125 C3.12491845 10.29156758 2.86758276 13.64951594 2.5 17.1875 C2.4071875 18.08855469 2.314375 18.98960938 2.21875 19.91796875 C2.1465625 20.60503906 2.074375 21.29210937 2 22 C1.34 22 0.68 22 0 22 C0 14.74 0 7.48 0 0 Z " fill="#F05821" transform="translate(64,87)"/>
<path d="M0 0 C0.99 0.33 1.98 0.66 3 1 C3 12.375 3 12.375 2.5 16.6875 C2.4071875 17.49574219 2.314375 18.30398437 2.21875 19.13671875 C2.11046875 20.05904297 2.11046875 20.05904297 2 21 C1.34 21 0.68 21 0 21 C0 14.07 0 7.14 0 0 Z " fill="#F05821" transform="translate(171,88)"/>
<path d="M0 0 C2.64 0 5.28 0 8 0 C8 2.97 8 5.94 8 9 C7.34 9 6.68 9 6 9 C6 6.69 6 4.38 6 2 C4.68 2 3.36 2 2 2 C2 4.31 2 6.62 2 9 C1.34 9 0.68 9 0 9 C0 6.03 0 3.06 0 0 Z " fill="#536286" transform="translate(81,122)"/>
<path d="M0 0 C0.99 0.33 1.98 0.66 3 1 C1.78172689 5.02967261 0.52453645 8.60158555 -2 12 C-4.1875 12.8125 -4.1875 12.8125 -6 13 C-4.31326082 8.50202887 -2.18326108 4.27113698 0 0 Z " fill="#233963" transform="translate(20,102)"/>
<path d="M0 0 C1.670625 0.061875 1.670625 0.061875 3.375 0.125 C3.045 0.785 2.715 1.445 2.375 2.125 C-0.1875 2.75 -0.1875 2.75 -2.625 3.125 C-2.625 5.105 -2.625 7.085 -2.625 9.125 C0.345 9.62 0.345 9.62 3.375 10.125 C3.045 10.785 2.715 11.445 2.375 12.125 C-0.32813576 12.34417317 -2.06458382 12.45351983 -4.4375 11.0625 C-6.271921 8.06949731 -5.93607576 5.54683337 -5.625 2.125 C-3.625 0.125 -3.625 0.125 0 0 Z " fill="#323E6E" transform="translate(176.625,118.875)"/>
<path d="M0 0 C2.475 0.495 2.475 0.495 5 1 C5 3.97 5 6.94 5 10 C3.68 9.67 2.36 9.34 1 9 C0.67 6.03 0.34 3.06 0 0 Z " fill="#F15C24" transform="translate(183,100)"/>
<path d="M0 0 C1.32 0 2.64 0 4 0 C4.66 0.99 5.32 1.98 6 3 C6.99 3.66 7.98 4.32 9 5 C7.35 5.66 5.7 6.32 4 7 C2 5.1875 2 5.1875 0 3 C0 2.01 0 1.02 0 0 Z " fill="#F04F11" transform="translate(127,103)"/>
<path d="M0 0 C0.99 0 1.98 0 3 0 C3 2.97 3 5.94 3 9 C2.01 9 1.02 9 0 9 C0 6.03 0 3.06 0 0 Z " fill="#8188A5" transform="translate(191,122)"/>
<path d="M0 0 C-0.3125 1.9375 -0.3125 1.9375 -1 4 C-1.99 4.33 -2.98 4.66 -4 5 C-4.66 4.67 -5.32 4.34 -6 4 C-6 2.68 -6 1.36 -6 0 C-3.50907189 -1.24546405 -2.58919267 -0.7767578 0 0 Z " fill="#E81919" transform="translate(246,2)"/>
<path d="M0 0 C0.66 0.33 1.32 0.66 2 1 C-6.261959 7.70387244 -6.261959 7.70387244 -11 8 C-7.6378363 4.34117479 -4.63949148 1.85579659 0 0 Z " fill="#F15514" transform="translate(34,121)"/>
<path d="M0 0 C0.99 0 1.98 0 3 0 C3.33 1.65 3.66 3.3 4 5 C2.35 5.33 0.7 5.66 -1 6 C-1.042721 4.33388095 -1.04063832 2.66617115 -1 1 C-0.67 0.67 -0.34 0.34 0 0 Z " fill="#E9EBEF" transform="translate(209,123)"/>
<path d="M0 0 C0.99 0 1.98 0 3 0 C3.33 1.65 3.66 3.3 4 5 C2.35 5.33 0.7 5.66 -1 6 C-1.042721 4.33388095 -1.04063832 2.66617115 -1 1 C-0.67 0.67 -0.34 0.34 0 0 Z " fill="#E1E4E9" transform="translate(129,123)"/>
<path d="M0 0 C3.3 0 6.6 0 10 0 C9.67 0.99 9.34 1.98 9 3 C6.03 2.67 3.06 2.34 0 2 C0 1.34 0 0.68 0 0 Z " fill="#F05208" transform="translate(205,86)"/>
<path d="M0 0 C0.99 0.33 1.98 0.66 3 1 C3 2.65 3 4.3 3 6 C1.35 5.67 -0.3 5.34 -2 5 C-1.125 1.125 -1.125 1.125 0 0 Z " fill="#E5E7EC" transform="translate(219,123)"/>
<path d="M0 0 C0.33 0.99 0.66 1.98 1 3 C2.65 3.33 4.3 3.66 6 4 C5.67 5.32 5.34 6.64 5 8 C3.35 8 1.7 8 0 8 C-0.33 7.34 -0.66 6.68 -1 6 C0.65 6 2.3 6 4 6 C4 5.34 4 4.68 4 4 C2.68 4 1.36 4 0 4 C0 2.68 0 1.36 0 0 Z " fill="#47567D" transform="translate(159,123)"/>
<path d="M0 0 C3 3.625 3 3.625 3 7 C1.02 7 -0.96 7 -3 7 C-2.01 4.69 -1.02 2.38 0 0 Z " fill="#A8B0C0" transform="translate(100,121)"/>
<path d="M0 0 C0.99 0.33 1.98 0.66 3 1 C2.67 2.65 2.34 4.3 2 6 C0.68 5.67 -0.64 5.34 -2 5 C-1.125 1.125 -1.125 1.125 0 0 Z " fill="#EBEDF0" transform="translate(139,123)"/>
<path d="M0 0 C1.32 0.33 2.64 0.66 4 1 C4 2.65 4 4.3 4 6 C2.68 6 1.36 6 0 6 C0 4.02 0 2.04 0 0 Z " fill="#E6E8ED" transform="translate(184,123)"/>
<path d="M0 0 C2.64 0 5.28 0 8 0 C8 0.99 8 1.98 8 3 C5.03 2.67 2.06 2.34 -1 2 C-0.67 1.34 -0.34 0.68 0 0 Z " fill="#F04F0C" transform="translate(131,86)"/>
<path d="M0 0 C2.475 0.495 2.475 0.495 5 1 C4.67 2.65 4.34 4.3 4 6 C2.68 6 1.36 6 0 6 C0 4.02 0 2.04 0 0 Z " fill="#D5D9E1" transform="translate(109,120)"/>
<path d="M0 0 C0.66 0.99 1.32 1.98 2 3 C1.375 5.625 1.375 5.625 0 8 C-2.125 8.8125 -2.125 8.8125 -4 9 C-2.80100302 5.9168649 -1.52299523 2.93720508 0 0 Z " fill="#263B65" transform="translate(27,89)"/>
<path d="M0 0 C1.65 0 3.3 0 5 0 C4.01 2.31 3.02 4.62 2 7 C1.67 5.68 1.34 4.36 1 3 C0.01 3.99 -0.98 4.98 -2 6 C-1.34 4.02 -0.68 2.04 0 0 Z " fill="#F04D03" transform="translate(119,86)"/>
<path d="M0 0 C1.2065625 0.0309375 1.2065625 0.0309375 2.4375 0.0625 C-1.3125 6.9375 -1.3125 6.9375 -3.5625 8.0625 C-2.9025 6.4125 -2.2425 4.7625 -1.5625 3.0625 C-2.2225 2.4025 -2.8825 1.7425 -3.5625 1.0625 C-2.5625 0.0625 -2.5625 0.0625 0 0 Z " fill="#F04C06" transform="translate(78.5625,85.9375)"/>
<path d="M0 0 C0.99 0.99 1.98 1.98 3 3 C2.34 4.32 1.68 5.64 1 7 C0.01 6.01 -0.98 5.02 -2 4 C-1.34 2.68 -0.68 1.36 0 0 Z " fill="#21335B" transform="translate(30,85)"/>
<path d="M0 0 C0.33 0 0.66 0 1 0 C1.3125 2.1875 1.3125 2.1875 1 5 C-1.5 7.8125 -1.5 7.8125 -4 10 C-3.29445932 6.33118845 -1.72264494 3.29549466 0 0 Z " fill="#293768" transform="translate(10,121)"/>
<path d="M0 0 C0 0.66 0 1.32 0 2 C-3.96 1.67 -7.92 1.34 -12 1 C-12 0.67 -12 0.34 -12 0 C-7.66726186 -0.92844389 -4.33273814 -0.92844389 0 0 Z " fill="#F26A34" transform="translate(187,89)"/>
<path d="M0 0 C1.65 0 3.3 0 5 0 C4.67 1.32 4.34 2.64 4 4 C2.68 4 1.36 4 0 4 C0 2.68 0 1.36 0 0 Z " fill="#A4ACC1" transform="translate(160,122)"/>
<path d="M0 0 C0 0.99 0 1.98 0 3 C-0.99 3.33 -1.98 3.66 -3 4 C-3 3.34 -3 2.68 -3 2 C-4.98 2 -6.96 2 -9 2 C-9 1.67 -9 1.34 -9 1 C-2.25 -1.125 -2.25 -1.125 0 0 Z " fill="#F04C09" transform="translate(217,106)"/>
<path d="M0 0 C1.65 0 3.3 0 5 0 C4.625 2.4375 4.625 2.4375 4 5 C3.01 5.495 3.01 5.495 2 6 C1.34 4.02 0.68 2.04 0 0 Z " fill="#F0510C" transform="translate(104,86)"/>
</svg>
